<?xml version="1.0" standalone="no"?>
<!DOCTYPE svg PUBLIC "-//W3C//DTD SVG 20010904//EN"
 "http://www.w3.org/TR/2001/REC-SVG-20010904/DTD/svg10.dtd">
<svg version="1.0" xmlns="http://www.w3.org/2000/svg"
 width="180.000000pt" height="180.000000pt" viewBox="0 0 180.000000 180.000000"
 preserveAspectRatio="xMidYMid meet">
<metadata>
Created by potrace 1.14, written by Peter Selinger 2001-2017
</metadata>
<g transform="translate(0.000000,180.000000) scale(0.100000,-0.100000)"
fill="#000000" stroke="none">
<path d="M789 1796 c-2 -2 -22 -7 -44 -10 -22 -4 -65 -14 -95 -23 -30 -9 -57
-17 -60 -18 -3 -1 -21 -8 -41 -17 -20 -9 -45 -19 -57 -22 -12 -4 -22 -12 -22
-17 0 -5 -6 -9 -14 -9 -36 0 -210 -153 -284 -249 -61 -80 -133 -248 -158 -366
-24 -117 -7 -347 34 -452 11 -29 17 -54 14 -57 -3 -4 1 -6 8 -6 7 0 11 -3 7
-6 -3 -3 3 -21 14 -40 10 -19 28 -51 40 -71 42 -75 133 -177 219 -245 55 -44
186 -118 194 -110 3 3 6 -1 6 -8 0 -7 3 -11 6 -8 3 4 22 0 41 -9 66 -27 197
-50 293 -51 81 -1 147 8 255 32 44 9 163 61 213 93 29 18 55 33 57 33 21 0
185 167 228 233 45 69 88 147 81 147 -4 0 -2 6 4 13 10 12 46 122 58 176 3 14
7 80 9 146 7 270 -85 493 -279 678 -52 50 -185 147 -200 147 -3 0 -29 11 -58
24 -64 29 -85 36 -118 42 -14 3 -32 7 -40 11 -8 3 -24 7 -35 9 -33 6 -271 15
-276 10z m226 -384 c97 -22 188 -74 259 -146 43 -44 105 -137 111 -166 2 -10
8 -27 13 -37 16 -30 25 -93 24 -173 -1 -82 -4 -99 -15 -117 -5 -7 -5 -17 -2
-23 3 -5 1 -10 -6 -10 -7 0 -10 -3 -7 -6 8 -7 -29 -91 -56 -127 -89 -119 -216
-202 -341 -223 -56 -9 -155 -11 -185 -3 -86 24 -141 46 -186 75 -291 183 -333
578 -88 819 42 41 144 111 144 98 0 -3 9 2 19 11 11 10 25 15 30 11 6 -3 11
-1 11 5 0 6 5 8 10 5 6 -3 15 -3 22 1 7 4 28 9 47 11 20 2 36 5 38 6 5 6 121
-2 158 -11z"/>
</g>
</svg>
